<svg id="레이어_1" data-name="레이어 1" xmlns="http://www.w3.org/2000/svg" viewBox="0 0 500 500"><defs><style>.cls-1{fill:red;stroke:#f99db1;stroke-width:15px;}.cls-1,.cls-2{stroke-miterlimit:10;}.cls-2{fill:none;stroke:#000;stroke-width:45px;}</style></defs><path class="cls-1" d="M362,259.55h0c0-12.16-5.4-24.34-16.31-33.62-21.75-18.51-57-18.51-78.75,0-10.89,9.27-16.33,21.42-16.31,33.57h-.54c0-12.11-5.45-24.22-16.31-33.46-21.75-18.51-57-18.51-78.75,0-10.85,9.23-16.28,21.31-16.31,33.41h0c0,.25,0,.51,0,.76.85,99.33,112.18,164.56,112.18,164.56,101.81-74.28,110.33-149.47,111-163h0C362,260.3,362,259.55,362,259.55Z"/><path class="cls-2" d="M214.39,69.61,23,250l-.5,214.5c20.26,20.26,434.74,20.26,455,0L477,250,285.61,69.61A50.35,50.35,0,0,0,214.39,69.61Z"/></svg>